<svg width="127" height="28" viewBox="0 0 127 28" version="1.1" xmlns="http://www.w3.org/2000/svg" xmlns:xlink="http://www.w3.org/1999/xlink">
<g id="Canvas" fill="none">
<g id="Button">
<g id="Bg">
<rect width="127" height="28" rx="3" fill="url(#paint0_linear)"/>
<rect x="0.5" y="0.5" width="126" height="27" rx="2.5" stroke="#D1D2D3"/>
</g>
<path id="Github" fill-rule="evenodd" clip-rule="evenodd" d="M 0 7.17722C 0 3.21328 3.20743 0 7.16284 0C 11.1186 0 14.3256 3.21328 14.3256 7.17722C 14.3256 10.3472 12.2758 13.0366 9.43134 13.9867C 9.06827 14.0572 8.93933 13.8334 8.93933 13.6424C 8.93933 13.5679 8.94016 13.44 8.94128 13.2698L 8.94144 13.2454L 8.94147 13.243L 8.94153 13.2321L 8.94156 13.229C 8.944 12.8589 8.94763 12.3067 8.94763 11.6728C 8.94763 11.0032 8.71872 10.5664 8.46179 10.3437C 10.0568 10.166 11.7325 9.55901 11.7325 6.80236C 11.7325 6.01877 11.4545 5.37852 10.9953 4.87589C 11.0696 4.69512 11.3149 3.96513 10.925 2.97652C 10.925 2.97652 10.3244 2.78363 8.95724 3.71222C 8.3848 3.55319 7.77158 3.47344 7.16284 3.47071C 6.55414 3.47344 5.94138 3.55319 5.37 3.71222C 4.00119 2.78363 3.39972 2.97652 3.39972 2.97652C 3.01077 3.96513 3.25595 4.69512 3.33032 4.87589C 2.8721 5.37852 2.59232 6.01877 2.59232 6.80236C 2.59232 9.55247 4.26477 10.1679 5.85571 10.3494C 5.65088 10.5286 5.46524 10.8452 5.40097 11.3091C 4.99222 11.4925 3.95541 11.8097 3.31656 10.7125C 3.31656 10.7125 2.93784 10.0235 2.21857 9.97285C 2.21857 9.97285 1.51968 9.9637 2.16956 10.4092C 2.16956 10.4092 2.63904 10.6297 2.96487 11.4593C 2.96487 11.4593 3.38535 12.7403 5.37808 12.3062C 5.37976 12.6319 5.38248 12.9475 5.38461 13.1953C 5.38641 13.4037 5.38779 13.5642 5.38779 13.6424C 5.38779 13.832 5.25638 14.0541 4.89841 13.9877C 2.05237 13.0386 0 10.3483 0 7.17722ZM 2.55997 10.246C 2.61096 10.2705 2.66696 10.2598 2.68274 10.2241C 2.70078 10.1883 2.67111 10.1392 2.61905 10.1158C 2.5672 10.0912 2.51111 10.1014 2.4957 10.1382C 2.47885 10.174 2.50803 10.2226 2.55997 10.246ZM 3.03506 10.5391C 3.00092 10.5708 2.93411 10.5561 2.88882 10.506C 2.84195 10.4559 2.83319 10.389 2.86783 10.3568C 2.90305 10.3251 2.9678 10.3399 3.01477 10.39C 3.06165 10.4406 3.07077 10.507 3.03506 10.5391ZM 3.11679 10.8802C 3.16113 10.9441 3.23291 10.9727 3.27679 10.9422C 3.32162 10.9109 3.32162 10.8344 3.27786 10.7695C 3.23291 10.7061 3.1622 10.6785 3.11774 10.7092C 3.07291 10.7399 3.07291 10.8164 3.11679 10.8802ZM 3.68558 11.409C 3.6463 11.4523 3.56268 11.4407 3.5015 11.3815C 3.43887 11.3236 3.42142 11.2415 3.46082 11.1981C 3.50055 11.1546 3.58463 11.1668 3.6463 11.2256C 3.70847 11.2833 3.72745 11.366 3.68558 11.409ZM 4.03485 11.6244C 4.11597 11.6483 4.19653 11.6227 4.21384 11.5665C 4.23068 11.5094 4.17755 11.444 4.09665 11.4195C 4.01492 11.3939 3.93402 11.4206 3.91718 11.4771C 3.90082 11.534 3.95383 11.5998 4.03485 11.6244ZM 4.81509 11.6334C 4.81711 11.6926 4.74832 11.7417 4.66315 11.7427C 4.57751 11.7446 4.50824 11.6967 4.50729 11.6385C 4.50729 11.5787 4.57455 11.5301 4.66019 11.5287C 4.74536 11.527 4.81509 11.5745 4.81509 11.6334ZM 5.27222 11.7436C 5.35678 11.7278 5.41595 11.6684 5.40576 11.6107C 5.39499 11.552 5.31918 11.5173 5.2345 11.532C 5.15146 11.5473 5.09122 11.6067 5.10153 11.6658C 5.11209 11.7231 5.18906 11.7588 5.27222 11.7436Z" transform="translate(7 7)" fill="black"/>
<g id="View on Github" transform="translate(28.33 9.4)">
<path d="M 6.01172 0.550781L 7.46484 0.550781L 4.46484 9.11719L 2.98828 9.11719L 0 0.550781L 1.44141 0.550781L 3.22852 5.87695C 3.32227 6.13086 3.42188 6.45898 3.52734 6.86133C 3.63281 7.25977 3.70117 7.55664 3.73242 7.75195C 3.7832 7.45508 3.86133 7.11133 3.9668 6.7207C 4.07227 6.33008 4.1582 6.04102 4.22461 5.85352L 6.01172 0.550781Z" fill="black"/>
<path d="M 9.82617 9.11719L 8.44922 9.11719L 8.44922 2.63672L 9.82617 2.63672L 9.82617 9.11719ZM 8.36719 0.919922C 8.36719 0.673828 8.43359 0.484375 8.56641 0.351562C 8.70312 0.21875 8.89648 0.152344 9.14648 0.152344C 9.38867 0.152344 9.57617 0.21875 9.70898 0.351562C 9.8457 0.484375 9.91406 0.673828 9.91406 0.919922C 9.91406 1.1543 9.8457 1.33984 9.70898 1.47656C 9.57617 1.60938 9.38867 1.67578 9.14648 1.67578C 8.89648 1.67578 8.70312 1.60938 8.56641 1.47656C 8.43359 1.33984 8.36719 1.1543 8.36719 0.919922Z" fill="black"/>
<path d="M 14.6309 9.23438C 13.623 9.23438 12.834 8.94141 12.2637 8.35547C 11.6973 7.76562 11.4141 6.95508 11.4141 5.92383C 11.4141 4.86523 11.6777 4.0332 12.2051 3.42773C 12.7324 2.82227 13.457 2.51953 14.3789 2.51953C 15.2344 2.51953 15.9102 2.7793 16.4062 3.29883C 16.9023 3.81836 17.1504 4.5332 17.1504 5.44336L 17.1504 6.1875L 12.832 6.1875C 12.8516 6.81641 13.0215 7.30078 13.3418 7.64062C 13.6621 7.97656 14.1133 8.14453 14.6953 8.14453C 15.0781 8.14453 15.4336 8.10938 15.7617 8.03906C 16.0938 7.96484 16.4492 7.84375 16.8281 7.67578L 16.8281 8.79492C 16.4922 8.95508 16.1523 9.06836 15.8086 9.13477C 15.4648 9.20117 15.0723 9.23438 14.6309 9.23438ZM 14.3789 3.5625C 13.9414 3.5625 13.5898 3.70117 13.3242 3.97852C 13.0625 4.25586 12.9062 4.66016 12.8555 5.19141L 15.7969 5.19141C 15.7891 4.65625 15.6602 4.25195 15.4102 3.97852C 15.1602 3.70117 14.8164 3.5625 14.3789 3.5625Z" fill="black"/>
<path d="M 24.0293 9.11719L 23.1914 6.09375C 23.0898 5.77344 22.9062 5.0293 22.6406 3.86133L 22.5879 3.86133C 22.3613 4.91602 22.1816 5.66406 22.0488 6.10547L 21.1875 9.11719L 19.6641 9.11719L 17.8477 2.63672L 19.2539 2.63672L 20.0801 5.83008C 20.2676 6.61914 20.4004 7.29492 20.4785 7.85742L 20.5137 7.85742C 20.5527 7.57227 20.6113 7.24609 20.6895 6.87891C 20.7715 6.50781 20.8418 6.23047 20.9004 6.04688L 21.8848 2.63672L 23.3965 2.63672L 24.3516 6.04688C 24.4102 6.23828 24.4824 6.53125 24.5684 6.92578C 24.6582 7.32031 24.7109 7.62695 24.7266 7.8457L 24.7734 7.8457C 24.832 7.36523 24.9688 6.69336 25.1836 5.83008L 26.0215 2.63672L 27.4043 2.63672L 25.5762 9.11719L 24.0293 9.11719Z" fill="black"/>
<path d="M 37.3887 5.86523C 37.3887 6.92383 37.1172 7.75 36.5742 8.34375C 36.0312 8.9375 35.2754 9.23438 34.3066 9.23438C 33.7012 9.23438 33.166 9.09766 32.7012 8.82422C 32.2363 8.55078 31.8789 8.1582 31.6289 7.64648C 31.3789 7.13477 31.2539 6.54102 31.2539 5.86523C 31.2539 4.81445 31.5234 3.99414 32.0625 3.4043C 32.6016 2.81445 33.3613 2.51953 34.3418 2.51953C 35.2793 2.51953 36.0215 2.82227 36.5684 3.42773C 37.1152 4.0293 37.3887 4.8418 37.3887 5.86523ZM 32.6719 5.86523C 32.6719 7.36133 33.2246 8.10938 34.3301 8.10938C 35.4238 8.10938 35.9707 7.36133 35.9707 5.86523C 35.9707 4.38477 35.4199 3.64453 34.3184 3.64453C 33.7402 3.64453 33.3203 3.83594 33.0586 4.21875C 32.8008 4.60156 32.6719 5.15039 32.6719 5.86523Z" fill="black"/>
<path d="M 44.6777 9.11719L 43.2949 9.11719L 43.2949 5.13281C 43.2949 4.63281 43.1934 4.25977 42.9902 4.01367C 42.791 3.76758 42.4727 3.64453 42.0352 3.64453C 41.4531 3.64453 41.0273 3.81641 40.7578 4.16016C 40.4883 4.50391 40.3535 5.08008 40.3535 5.88867L 40.3535 9.11719L 38.9766 9.11719L 38.9766 2.63672L 40.0547 2.63672L 40.248 3.48633L 40.3184 3.48633C 40.5137 3.17773 40.791 2.93945 41.1504 2.77148C 41.5098 2.60352 41.9082 2.51953 42.3457 2.51953C 43.9004 2.51953 44.6777 3.31055 44.6777 4.89258L 44.6777 9.11719Z" fill="black"/>
<path d="M 53.3613 4.4707L 56.5137 4.4707L 56.5137 8.77148C 55.998 8.93945 55.502 9.05859 55.0254 9.12891C 54.5527 9.19922 54.041 9.23438 53.4902 9.23438C 52.1934 9.23438 51.1934 8.85156 50.4902 8.08594C 49.7871 7.31641 49.4355 6.23242 49.4355 4.83398C 49.4355 3.45508 49.832 2.37695 50.625 1.59961C 51.418 0.818359 52.5098 0.427734 53.9004 0.427734C 54.7949 0.427734 55.6426 0.599609 56.4434 0.943359L 55.9512 2.10938C 55.2559 1.78906 54.5605 1.62891 53.8652 1.62891C 52.9512 1.62891 52.2285 1.91602 51.6973 2.49023C 51.166 3.06445 50.9004 3.84961 50.9004 4.8457C 50.9004 5.89258 51.1387 6.68945 51.6152 7.23633C 52.0957 7.7793 52.7852 8.05078 53.6836 8.05078C 54.1367 8.05078 54.6211 7.99414 55.1367 7.88086L 55.1367 5.67188L 53.3613 5.67188L 53.3613 4.4707Z" fill="black"/>
<path d="M 59.8066 9.11719L 58.4297 9.11719L 58.4297 2.63672L 59.8066 2.63672L 59.8066 9.11719ZM 58.3477 0.919922C 58.3477 0.673828 58.4141 0.484375 58.5469 0.351562C 58.6836 0.21875 58.877 0.152344 59.127 0.152344C 59.3691 0.152344 59.5566 0.21875 59.6895 0.351562C 59.8262 0.484375 59.8945 0.673828 59.8945 0.919922C 59.8945 1.1543 59.8262 1.33984 59.6895 1.47656C 59.5566 1.60938 59.3691 1.67578 59.127 1.67578C 58.877 1.67578 58.6836 1.60938 58.5469 1.47656C 58.4141 1.33984 58.3477 1.1543 58.3477 0.919922Z" fill="black"/>
<path d="M 64.1953 8.12109C 64.5312 8.12109 64.8672 8.06836 65.2031 7.96289L 65.2031 9C 65.0508 9.06641 64.8535 9.12109 64.6113 9.16406C 64.373 9.21094 64.125 9.23438 63.8672 9.23438C 62.5625 9.23438 61.9102 8.54688 61.9102 7.17188L 61.9102 3.67969L 61.0254 3.67969L 61.0254 3.07031L 61.9746 2.56641L 62.4434 1.19531L 63.293 1.19531L 63.293 2.63672L 65.1387 2.63672L 65.1387 3.67969L 63.293 3.67969L 63.293 7.14844C 63.293 7.48047 63.375 7.72656 63.5391 7.88672C 63.707 8.04297 63.9258 8.12109 64.1953 8.12109Z" fill="black"/>
<path d="M 72.2051 9.11719L 70.8223 9.11719L 70.8223 5.13281C 70.8223 4.63281 70.7207 4.25977 70.5176 4.01367C 70.3184 3.76758 70 3.64453 69.5625 3.64453C 68.9844 3.64453 68.5586 3.81836 68.2852 4.16602C 68.0156 4.50977 67.8809 5.08789 67.8809 5.90039L 67.8809 9.11719L 66.5039 9.11719L 66.5039 0L 67.8809 0L 67.8809 2.31445C 67.8809 2.68555 67.8574 3.08203 67.8105 3.50391L 67.8984 3.50391C 68.0859 3.19141 68.3457 2.94922 68.6777 2.77734C 69.0137 2.60547 69.4043 2.51953 69.8496 2.51953C 71.4199 2.51953 72.2051 3.31055 72.2051 4.89258L 72.2051 9.11719Z" fill="black"/>
<path d="M 78.6914 9.11719L 78.498 8.26758L 78.4277 8.26758C 78.2363 8.56836 77.9629 8.80469 77.6074 8.97656C 77.2559 9.14844 76.8535 9.23438 76.4004 9.23438C 75.6152 9.23438 75.0293 9.03906 74.6426 8.64844C 74.2559 8.25781 74.0625 7.66602 74.0625 6.87305L 74.0625 2.63672L 75.4512 2.63672L 75.4512 6.63281C 75.4512 7.12891 75.5527 7.50195 75.7559 7.75195C 75.959 7.99805 76.2773 8.12109 76.7109 8.12109C 77.2891 8.12109 77.7129 7.94922 77.9824 7.60547C 78.2559 7.25781 78.3926 6.67773 78.3926 5.86523L 78.3926 2.63672L 79.7754 2.63672L 79.7754 9.11719L 78.6914 9.11719Z" fill="black"/>
<path d="M 85.0488 2.51953C 85.8574 2.51953 86.4863 2.8125 86.9355 3.39844C 87.3887 3.98438 87.6152 4.80664 87.6152 5.86523C 87.6152 6.92773 87.3867 7.75586 86.9297 8.34961C 86.4727 8.93945 85.8379 9.23438 85.0254 9.23438C 84.2051 9.23438 83.5684 8.93945 83.1152 8.34961L 83.0215 8.34961L 82.7695 9.11719L 81.7383 9.11719L 81.7383 0L 83.1152 0L 83.1152 2.16797C 83.1152 2.32812 83.1074 2.56641 83.0918 2.88281C 83.0762 3.19922 83.0645 3.40039 83.0566 3.48633L 83.1152 3.48633C 83.5527 2.8418 84.1973 2.51953 85.0488 2.51953ZM 84.6914 3.64453C 84.1367 3.64453 83.7363 3.80859 83.4902 4.13672C 83.248 4.46094 83.123 5.00586 83.1152 5.77148L 83.1152 5.86523C 83.1152 6.6543 83.2402 7.22656 83.4902 7.58203C 83.7402 7.93359 84.1484 8.10938 84.7148 8.10938C 85.2031 8.10938 85.5723 7.91602 85.8223 7.5293C 86.0762 7.14258 86.2031 6.58398 86.2031 5.85352C 86.2031 4.38086 85.6992 3.64453 84.6914 3.64453Z" fill="black"/>
</g>
</g>
</g>
<defs>
<linearGradient id="paint0_linear" x2="1" gradientUnits="userSpaceOnUse" gradientTransform="matrix(0 28 -127 0 127 0)">
<stop stop-color="#FAFBFC"/>
<stop offset="1" stop-color="#E4EBF0"/>
</linearGradient>
</defs>
</svg>
